<?xml version="1.0" encoding="UTF-8"?>
<svg version="1.1" xmlns="http://www.w3.org/2000/svg" width="192" height="192">
<path d="M0 0 C1.05509766 -0.01998047 2.11019531 -0.03996094 3.19726562 -0.06054688 C12.96378421 -0.05453671 21.04741031 2.83474881 29.5625 7.4375 C29.5625 8.0975 29.5625 8.7575 29.5625 9.4375 C30.15417969 9.5509375 30.74585937 9.664375 31.35546875 9.78125 C38.32324987 11.8530858 43.84591607 19.56070482 47.5625 25.4375 C52.46305476 35.249622 54.74134713 43.80411998 54.75 54.75 C54.76224609 55.55373047 54.77449219 56.35746094 54.78710938 57.18554688 C54.8064687 65.20675894 53.43042541 72.23839191 49.9375 79.5 C49.26847656 80.90958984 49.26847656 80.90958984 48.5859375 82.34765625 C48.24820313 83.03730469 47.91046875 83.72695312 47.5625 84.4375 C46.9025 84.4375 46.2425 84.4375 45.5625 84.4375 C45.29912842 85.1701709 45.03575684 85.9028418 44.7644043 86.65771484 C43.55509366 89.45462951 42.19076121 91.50975338 40.33203125 93.9140625 C39.69716797 94.74405762 39.06230469 95.57405273 38.40820312 96.42919922 C37.73724609 97.29818848 37.06628906 98.16717773 36.375 99.0625 C28.58100309 109.32385996 21.79224092 119.5018806 16.18359375 131.1171875 C15.23570747 133.05864133 14.26081627 134.9880948 13.22265625 136.8828125 C6.1134061 149.92022331 2.85108186 164.88292241 0.5625 179.4375 C-0.0975 179.4375 -0.7575 179.4375 -1.4375 179.4375 C-1.66824219 178.2515625 -1.89898437 177.065625 -2.13671875 175.84375 C-5.02622502 161.35104657 -8.32380001 147.50529998 -15.4375 134.4375 C-16.25408141 132.77282921 -17.06651986 131.10612036 -17.875 129.4375 C-23.60747728 118.02578827 -30.86842854 107.58235158 -38.4609375 97.34375 C-38.9660083 96.66207764 -39.4710791 95.98040527 -39.99145508 95.27807617 C-40.98385513 93.94390118 -41.98097067 92.61321859 -42.9831543 91.28637695 C-46.4375 86.65524216 -46.4375 86.65524216 -46.4375 84.4375 C-47.0975 84.4375 -47.7575 84.4375 -48.4375 84.4375 C-49.42838927 82.42238879 -50.40468737 80.40009953 -51.375 78.375 C-51.92027344 77.24964844 -52.46554688 76.12429687 -53.02734375 74.96484375 C-55.62349852 68.47086104 -55.61949492 61.95485566 -55.625 55.0625 C-55.63724609 54.26328125 -55.64949219 53.4640625 -55.66210938 52.640625 C-55.70005819 37.00571265 -49.28117835 25.44393524 -38.4375 14.4375 C-37.65375 13.53 -36.87 12.6225 -36.0625 11.6875 C-25.57873527 2.70141595 -13.46738084 -0.09016506 0 0 Z M-26.4375 18.4375 C-26.4375 19.4275 -26.4375 20.4175 -26.4375 21.4375 C-25.7775 20.4475 -25.1175 19.4575 -24.4375 18.4375 C-25.0975 18.4375 -25.7575 18.4375 -26.4375 18.4375 Z M-30.4375 21.4375 C-30.1075 22.0975 -29.7775 22.7575 -29.4375 23.4375 C-29.1075 22.7775 -28.7775 22.1175 -28.4375 21.4375 C-29.0975 21.4375 -29.7575 21.4375 -30.4375 21.4375 Z M-33.4375 24.4375 C-33.1075 25.0975 -32.7775 25.7575 -32.4375 26.4375 C-32.1075 25.7775 -31.7775 25.1175 -31.4375 24.4375 C-32.0975 24.4375 -32.7575 24.4375 -33.4375 24.4375 Z M-22.59765625 34.3515625 C-28.98638869 41.59483877 -31.00480536 49.19950128 -30.89453125 58.703125 C-30.17411014 64.58964275 -27.89605979 69.63254223 -24.4375 74.4375 C-23.4475 74.7675 -22.4575 75.0975 -21.4375 75.4375 C-21.1075 76.4275 -20.7775 77.4175 -20.4375 78.4375 C-15.64252813 82.0675917 -10.54359564 85.17201758 -4.4375 85.4375 C-3.15875 85.499375 -1.88 85.56125 -0.5625 85.625 C7.78010865 85.45086585 14.20721483 82.85126144 20.5625 77.4375 C20.5625 76.7775 20.5625 76.1175 20.5625 75.4375 C21.5525 75.1075 22.5425 74.7775 23.5625 74.4375 C29.39429803 66.33541563 30.89920131 58.21652534 29.5625 48.4375 C27.59572278 40.44898511 21.87978452 33.35477053 15.1171875 28.78515625 C12.63352044 27.47496491 10.31210953 26.55231232 7.625 25.75 C6.40490234 25.37294922 6.40490234 25.37294922 5.16015625 24.98828125 C-5.36065684 22.75755246 -15.12022042 27.07695043 -22.59765625 34.3515625 Z M-36.4375 27.4375 C-36.1075 28.4275 -35.7775 29.4175 -35.4375 30.4375 C-34.7775 29.1175 -34.1175 27.7975 -33.4375 26.4375 C-34.6611068 26.3629644 -34.6611068 26.3629644 -36.4375 27.4375 Z M-38.4375 30.4375 C-45.03008646 40.89470611 -46.56241442 51.24487914 -45.4375 63.4375 C-44.49953605 67.31265623 -43.3670455 70.93755798 -41.4375 74.4375 C-40.7775 74.7675 -40.1175 75.0975 -39.4375 75.4375 C-39.92328543 72.31459365 -40.4361012 69.44169641 -41.4375 66.4375 C-41.72137891 62.73415282 -41.71519047 59.02551609 -41.75 55.3125 C-41.77900391 54.30445312 -41.80800781 53.29640625 -41.83789062 52.2578125 C-41.88878828 46.21273686 -41.21578719 41.76079333 -38.39916992 36.37939453 C-37.42409451 34.41043038 -36.89353796 32.58042986 -36.4375 30.4375 C-37.0975 30.4375 -37.7575 30.4375 -38.4375 30.4375 Z M-39.4375 75.4375 C-39.08963292 77.41286745 -39.08963292 77.41286745 -38.4375 79.4375 C-37.7775 79.7675 -37.1175 80.0975 -36.4375 80.4375 C-36.78536708 78.46213255 -36.78536708 78.46213255 -37.4375 76.4375 C-38.0975 76.1075 -38.7575 75.7775 -39.4375 75.4375 Z M-36.4375 80.4375 C-35.7775 81.7575 -35.1175 83.0775 -34.4375 84.4375 C-34.1075 83.4475 -33.7775 82.4575 -33.4375 81.4375 C-34.4275 81.1075 -35.4175 80.7775 -36.4375 80.4375 Z M-33.4375 84.4375 C-32.4475 85.4275 -31.4575 86.4175 -30.4375 87.4375 C-30.7675 86.4475 -31.0975 85.4575 -31.4375 84.4375 C-32.0975 84.4375 -32.7575 84.4375 -33.4375 84.4375 Z M-30.4375 87.4375 C-29.4475 88.4275 -28.4575 89.4175 -27.4375 90.4375 C-27.7675 89.4475 -28.0975 88.4575 -28.4375 87.4375 C-29.0975 87.4375 -29.7575 87.4375 -30.4375 87.4375 Z M-26.4375 90.4375 C-25.7775 91.0975 -25.1175 91.7575 -24.4375 92.4375 C-24.4375 91.7775 -24.4375 91.1175 -24.4375 90.4375 C-25.0975 90.4375 -25.7575 90.4375 -26.4375 90.4375 Z " fill="#ffffff" transform="translate(96.4375,-0.4375)"/>
<path d="M0 0 C0.96099609 0.01353516 1.92199219 0.02707031 2.91210938 0.04101562 C5.25451752 0.07597694 7.59569156 0.12503896 9.9375 0.1875 C9.9375 0.5175 9.9375 0.8475 9.9375 1.1875 C8.11025391 1.56841797 8.11025391 1.56841797 6.24609375 1.95703125 C4.62231575 2.30431325 2.99862225 2.65199055 1.375 3 C0.57513672 3.16564453 -0.22472656 3.33128906 -1.04882812 3.50195312 C-9.15894297 5.05125031 -9.15894297 5.05125031 -16.0625 9.1875 C3.97988101 18.00910048 31.13548789 14.88472854 51.9375 10.1875 C51.9375 9.1975 51.9375 8.2075 51.9375 7.1875 C44.07882068 4.29219709 36.14627337 2.71244999 27.9375 1.1875 C27.9375 0.8575 27.9375 0.5275 27.9375 0.1875 C51.49285252 -0.65771 51.49285252 -0.65771 58.9375 4.1875 C60.9375 6.1875 60.9375 6.1875 61.375 9.0625 C60.9375 12.1875 60.9375 12.1875 59 14.375 C55.12008812 16.67127438 51.26812352 17.99148561 46.9375 19.1875 C45.7501123 19.52523437 44.56272461 19.86296875 43.33935547 20.2109375 C38.84329158 21.32551987 34.54981433 21.51037621 29.93359375 21.5234375 C29.09264664 21.5300943 28.25169952 21.5367511 27.38526917 21.54360962 C25.61290654 21.5536798 23.84050644 21.5584284 22.06811523 21.55810547 C19.40607272 21.5624493 16.7457313 21.59874663 14.08398438 21.63671875 C1.11114629 21.72410847 -11.20168877 21.06971749 -22.0625 13.1875 C-23.0625 12.1875 -23.0625 12.1875 -23.3125 9.3125 C-23.0625 6.1875 -23.0625 6.1875 -21.79663086 4.59692383 C-15.64277326 -0.40465577 -7.52432766 -0.20420931 0 0 Z " fill="#ffffff" transform="translate(77.0625,170.8125)"/>
</svg>
